<svg id="emoji" viewBox="0 0 44 52" xmlns="http://www.w3.org/2000/svg">
  <g id="color">
    <path fill="#D0CFCE" stroke="#D0CFCE" stroke-linecap="round" stroke-linejoin="round" stroke-miterlimit="10" stroke-width="2" d="M7.3751,21.1747c-0.3501-8.7708,6.4491-18.5395,14.387-18.7794c8.0047-0.2419,16.5412,10.9698,14.333,19.052h-4.0394 c0,0,1.5619-7.922-2.2164-11.2535c-1.8494-1.6307-5.2556-4.771-8.6396-4.2922c-2.2829,0.323-6.8677,3.4518-7.9271,5.4209 c-2.0643,3.8367-1.7248,9.8169-1.7248,9.8169L7.3751,21.1747z"/>
    <polygon fill="#FCEA2B" stroke="none" points="39,22.2969 40.875,22.2969 40.875,49.1719 2.875,49.1719 2.875,22.2969 4.75,22.2969"/>
    <polygon fill="#F1B31C" stroke="none" points="40.4302,22.493 21.66,48.9944 40.9675,48.9944"/>
  </g>
  <g id="hair"/>
  <g id="skin"/>
  <g id="skin-shadow"/>
  <g id="line">
    <polygon fill="none" stroke="#000000" stroke-linecap="round" stroke-linejoin="round" stroke-miterlimit="10" stroke-width="2" points="39,22.25 40.875,22.25 40.875,49.125 2.875,49.125 2.875,22.25 4.75,22.25"/>
    <path fill="none" stroke="#000000" stroke-linecap="round" stroke-linejoin="round" stroke-miterlimit="10" stroke-width="2" d="M7.3751,18.9146c0-8.3786,6.4151-16.2744,14.3184-16.523c7.9697-0.2507,15.4098,7.2847,14.7416,16.523"/>
    <path fill="none" stroke="#000000" stroke-linecap="round" stroke-linejoin="round" stroke-miterlimit="10" stroke-width="2" d="M11.5478,18.9146c0-6.3352,4.5755-12.3054,10.2123-12.4934c5.6843-0.1896,10.9908,5.5081,10.5142,12.4934"/>
  </g>
</svg>
